<?xml version="1.0" encoding="UTF-8"?>
<svg version="1.1" xmlns="http://www.w3.org/2000/svg" width="600" height="315">
<path d="M0 0 C1.07268631 -0.00671722 2.14537262 -0.01343445 3.25056458 -0.02035522 C6.78077894 -0.03928145 10.31080257 -0.04325696 13.84106445 -0.04541016 C16.30955583 -0.05184256 18.77804645 -0.05857125 21.24653625 -0.06558228 C26.41697963 -0.07754217 31.58735627 -0.08126449 36.7578125 -0.08007812 C43.35694471 -0.07987519 49.95564507 -0.10715749 56.5546751 -0.14162254 C61.65332473 -0.16395052 66.75187146 -0.16791382 71.85056496 -0.16685867 C74.28203632 -0.16920651 76.71351087 -0.17798349 79.1449337 -0.19352341 C100.23689809 -0.31569202 116.91389816 2.04314077 132.98950195 17.13037109 C144.59487608 29.49602021 150.49929914 44.57284985 150.42089844 61.41479492 C150.42776169 62.46680588 150.43462494 63.51881683 150.44169617 64.60270691 C150.45985211 68.04696526 150.45614201 71.49076311 150.45043945 74.93505859 C150.45500713 77.35202683 150.46031443 79.76899378 150.46632385 82.18595886 C150.47523342 87.24015596 150.47285691 92.29419486 150.46289062 97.34838867 C150.45141345 103.79378767 150.47160507 110.23863778 150.50080776 116.68396473 C150.51924278 121.67286085 150.51886259 126.66162726 150.51317024 131.65054893 C150.51301787 134.02536475 150.51899186 136.40018983 150.53146172 138.77497292 C150.66522639 168.42636189 150.66522639 168.42636189 141.8918457 180.91552734 C139.95353526 184.01882852 139.95353526 184.01882852 139.0168457 187.29052734 C139.96793809 190.82440272 141.44059078 193.41683571 143.35668945 196.52490234 C147.02154574 202.63012176 146.26943362 207.9372628 144.7043457 214.66552734 C143.78975831 218.11865242 143.01610415 220.29163968 141.0168457 223.29052734 C136.6708554 222.88309075 133.937592 221.09957798 130.4699707 218.64208984 C124.2681062 215.22513902 117.53940882 213.77951952 110.54785156 213.12231445 C109.33614115 213.00275973 109.33614115 213.00275973 108.09995174 212.88078976 C98.0848401 211.99075284 88.05055177 211.99399956 78.00320625 211.98556709 C74.43195757 211.98184095 70.86097151 211.96495264 67.28977966 211.94480896 C57.15173225 211.88995288 47.01365017 211.85866053 36.87548828 211.83422852 C30.63541417 211.81829794 24.39553443 211.78804121 18.15556145 211.74946404 C15.79586799 211.73788428 13.43613979 211.7318843 11.07641792 211.73178291 C-10.09949159 211.73054147 -26.79629907 209.9322162 -42.84643555 194.45068359 C-43.55155273 193.73783203 -44.25666992 193.02498047 -44.9831543 192.29052734 C-45.53358398 191.77361328 -46.08401367 191.25669922 -46.65112305 190.72412109 C-50.44596939 186.82753624 -52.78607081 182.15755958 -55.2331543 177.35302734 C-55.74579834 176.35033813 -55.74579834 176.35033813 -56.26879883 175.32739258 C-56.59219238 174.66682861 -56.91558594 174.00626465 -57.2487793 173.32568359 C-57.67852051 172.44988647 -57.67852051 172.44988647 -58.11694336 171.55639648 C-60.83172565 164.45496063 -61.28057954 157.92397429 -61.27368164 150.39916992 C-61.28039886 149.33623718 -61.28711609 148.27330444 -61.29403687 147.17816162 C-61.31296143 143.68041242 -61.31693852 140.18285574 -61.3190918 136.68505859 C-61.32552433 134.23898746 -61.33225303 131.79291708 -61.33926392 129.34684753 C-61.35122341 124.22348244 -61.35494618 119.1001847 -61.35375977 113.97680664 C-61.35355684 107.43820693 -61.38083879 100.9000431 -61.41530418 94.36154652 C-61.43763373 89.30921986 -61.44159542 84.25699702 -61.44054031 79.20462608 C-61.44288793 76.79548328 -61.45166364 74.38633724 -61.46720505 71.97724342 C-61.60807793 47.88168274 -61.60807793 47.88168274 -56.9831543 37.29052734 C-56.60532806 36.38651688 -56.22750183 35.48250641 -55.83822632 34.55110168 C-49.36663698 19.74305279 -36.7946991 9.10609373 -21.9675293 3.26318359 C-14.41940396 0.80312704 -7.91119128 -0.00718415 0 0 Z M-15.9831543 40.29052734 C-16.93448242 41.04076172 -16.93448242 41.04076172 -17.9050293 41.80615234 C-26.31409328 49.17338539 -30.51197791 60.46182381 -31.9831543 71.29052734 C-32.27271024 76.40975869 -32.28963234 81.52403267 -32.28393555 86.64990234 C-32.28783433 88.12664915 -32.29217137 89.60339485 -32.29692078 91.08013916 C-32.30434154 94.16300096 -32.30412282 97.24574817 -32.29882812 100.32861328 C-32.29305009 104.23943127 -32.30994418 108.14977308 -32.3331728 112.06051254 C-32.34805536 115.1081202 -32.34876217 118.15561713 -32.34566307 121.2032547 C-32.34616939 122.64305816 -32.35127432 124.082869 -32.36147499 125.52263641 C-32.44661478 139.22137242 -31.32650786 151.99551569 -22.9831543 163.29052734 C-22.19424805 164.36947266 -22.19424805 164.36947266 -21.3894043 165.47021484 C-17.11736917 170.81025875 -12.1536831 174.38110703 -5.9831543 177.29052734 C-4.96870491 177.78300461 -4.96870491 177.78300461 -3.9337616 178.28543091 C5.10916367 182.14979199 13.89509904 181.85894487 23.54418945 181.82958984 C25.34144777 181.83952454 27.13869594 181.85147615 28.93592834 181.86532593 C33.65134013 181.89753812 38.36652033 181.90806247 43.08203125 181.91217041 C50.59364126 181.92094938 58.10506198 181.95721511 65.61651802 182.00434494 C68.20389003 182.01666005 70.79100822 182.01619497 73.37840271 182.0140686 C81.86000294 182.03387883 90.24250887 182.35897463 98.68701172 183.18261719 C99.48942512 183.26003962 100.29183851 183.33746204 101.11856747 183.41723061 C106.51986768 183.99507358 111.73974637 185.00868023 117.0168457 186.29052734 C112.86005894 175.47122722 106.73594416 164.02910227 97.0168457 157.29052734 C97.3468457 156.30052734 97.6768457 155.31052734 98.0168457 154.29052734 C104.42480564 152.03381102 111.23101395 150.81709722 118.0168457 151.29052734 C122.25789058 142.52570127 121.17979662 131.81643405 121.18481445 122.32568359 C121.18803561 120.8827664 121.1914003 119.43984952 121.19490051 117.99693298 C121.20085696 114.98549645 121.20274393 111.97408848 121.20214844 108.96264648 C121.2020468 105.12886331 121.21571616 101.29526526 121.23292065 97.46152592 C121.24410726 94.48529744 121.24606564 91.50911286 121.24553871 88.53286552 C121.24670815 87.120461 121.2510707 85.70805494 121.25887108 84.29567146 C121.3382854 68.43805357 118.99279124 54.15546574 107.6418457 42.22802734 C95.26286795 30.97441121 80.43912051 28.66049453 64.27075195 28.75927734 C62.68619042 28.75657309 61.10163053 28.75268298 59.51707458 28.74768066 C56.21662396 28.74182761 52.91661021 28.75021004 49.61621094 28.76904297 C45.42617961 28.79181156 41.23717482 28.77869645 37.04718113 28.75475311 C33.78078246 28.74016418 30.51461934 28.74496063 27.24821281 28.75526428 C25.7051474 28.7578966 24.16205923 28.75478789 22.61902046 28.74534607 C8.10465787 28.67599491 -4.53308304 30.65269758 -15.9831543 40.29052734 Z " fill="#57BB8D" transform="translate(255.983154296875,45.70947265625)"/>
</svg>
